<?xml version="1.0" encoding="UTF-8" standalone="no"?>
<!-- Created with Inkscape (http://www.inkscape.org/) -->

<svg
   width="100mm"
   height="100mm"
   viewBox="0 0 99.999999 99.999999"
   version="1.1"
   id="svg1"
   xml:space="preserve"
   inkscape:version="1.3.2 (091e20ef0f, 2023-11-25, custom)"
   sodipodi:docname="icon.svg"
   xmlns:inkscape="http://www.inkscape.org/namespaces/inkscape"
   xmlns:sodipodi="http://sodipodi.sourceforge.net/DTD/sodipodi-0.dtd"
   xmlns="http://www.w3.org/2000/svg"
   xmlns:svg="http://www.w3.org/2000/svg"><sodipodi:namedview
     id="namedview1"
     pagecolor="#ffffff"
     bordercolor="#000000"
     borderopacity="0.25"
     inkscape:showpageshadow="2"
     inkscape:pageopacity="0.0"
     inkscape:pagecheckerboard="0"
     inkscape:deskcolor="#d1d1d1"
     inkscape:document-units="mm"
     showguides="false"
     inkscape:zoom="1.3809132"
     inkscape:cx="80.019513"
     inkscape:cy="238.24814"
     inkscape:window-width="1916"
     inkscape:window-height="1038"
     inkscape:window-x="0"
     inkscape:window-y="0"
     inkscape:window-maximized="1"
     inkscape:current-layer="layer1" /><defs
     id="defs1"><rect
       x="82.198235"
       y="747.45007"
       width="59.625526"
       height="16.337578"
       id="rect23" /><rect
       x="82.198235"
       y="747.45007"
       width="59.625526"
       height="16.337578"
       id="rect3" /><rect
       x="82.198235"
       y="747.45007"
       width="59.625526"
       height="16.337578"
       id="rect6" /><rect
       x="82.198235"
       y="747.45007"
       width="59.625526"
       height="16.337578"
       id="rect7" /><rect
       x="82.198235"
       y="747.45007"
       width="139.03654"
       height="19.346954"
       id="rect9" /><rect
       x="82.198235"
       y="747.45007"
       width="59.625526"
       height="16.337578"
       id="rect14" /></defs><g
     inkscape:label="Layer 1"
     inkscape:groupmode="layer"
     id="layer1"><rect
       style="fill:#0a1b25;stroke-width:5.58104;stroke-linecap:round"
       id="rect1"
       width="100"
       height="100"
       x="1.4210855e-14"
       y="0"
       inkscape:label="bg" /><path
       id="path26"
       style="fill:#1b7d7f;fill-opacity:1;stroke:none;stroke-width:0;stroke-linecap:round;stroke-dasharray:none;stroke-opacity:1"
       d="m 354.55585,-19.238637 3e-4,22.8966506 10.64103,3.1e-6 2.1e-4,-10.6404351 -10.64084,-1.975e-4 9e-5,-1.6149767 10.64044,-2.045e-4 2e-4,-10.6404349 z m 10.64143,4.05e-4 1.6132,7.5e-5 -10e-6,10.6402412 10.64182,1.61e-5 2.1e-4,-10.6404353 z m 1.61331,12.2558893 -2.1e-4,10.6404351 10.64202,-1.783e-4 10e-6,-10.6402407 z"
       transform="matrix(1.8719928,0.90545602,-1.8719928,0.90545602,-649.7406,-261.20331)"
       inkscape:label="base" /><circle
       style="fill:#d9f2ab;fill-opacity:1;stroke:none;stroke-width:1.44431;stroke-linecap:round;stroke-dasharray:none;stroke-opacity:1"
       id="circle26"
       cx="49.99984"
       cy="49.591976"
       r="17.213493"
       inkscape:label="rad" /><path
       id="path27"
       style="fill:#359d84;fill-opacity:1;stroke:none;stroke-width:0;stroke-linecap:round;stroke-dasharray:none;stroke-opacity:1"
       d="m 354.55608,-19.238416 -7e-5,22.8965133 10.64126,-4.61e-5 6e-5,-10.6404021 -10.6404,6.03e-5 -2.6e-4,-1.615499 10.6404,-6.03e-5 6e-5,-10.6404021 z m 12.2544,-4e-5 1.7e-4,10.6410479 10.64168,-4.669e-4 6e-5,-10.640402 z m -10e-6,12.2561119 -6e-5,10.640402 10.64212,-3.19e-5 -1.5e-4,-10.6401916 z"
       transform="matrix(1.7294059,0.83649664,-1.7294059,0.83649664,-596.44259,-264.36743)"
       inkscape:label="roof" /></g></svg>
